<?xml version="1.0" encoding="utf-8"?>
<!-- Generator: Adobe Illustrator 16.0.0, SVG Export Plug-In . SVG Version: 6.00 Build 0)  -->
<!DOCTYPE svg PUBLIC "-//W3C//DTD SVG 1.1//EN" "http://www.w3.org/Graphics/SVG/1.1/DTD/svg11.dtd">
<svg version="1.1" id="圖層_1" xmlns="http://www.w3.org/2000/svg" xmlns:xlink="http://www.w3.org/1999/xlink" x="0px" y="0px"
	 width="512px" height="758px" viewBox="0 0 512 758" enable-background="new 0 0 512 758" xml:space="preserve">
<g id="圖層_1_1_" display="none">
	<path display="inline" fill="none" stroke="#000000" stroke-miterlimit="10" d="M292.471,12.25
		c-0.258,0.688-0.58,16.101-0.72,34.25l-0.252,33l-5.5-0.209c-3.024-0.114-8.649-0.564-12.5-1l-7-0.791l-0.5-17l-0.5-17H259h-6.5
		l-0.274,15.93c-0.168,9.671-0.707,16.447-1.373,17.25c-0.688,0.828-3.356,1.32-7.164,1.32c-3.336,0-8.795,0.483-12.127,1.074
		c-17.883,3.169-23.34,4.219-26.062,5.014c-38.25,11.171-65.479,26.935-91.538,52.995c-24.029,24.03-38.551,48.05-50.429,83.417
		c-4.414,13.144-7.586,32.518-8.186,50l-0.412,12l17.03,17.232C81.335,309.211,89,317.55,89,318.263
		c0,0.715-2.742,3.985-6.092,7.268c-8.032,7.869-19.299,21.176-29.09,34.358c-6.988,9.409-19.11,31.14-24.605,44.11
		c-9.698,22.895-15.614,44.475-18.315,66.822c-0.51,4.224-1.146,9.027-1.408,10.678c-1.438,8.987-0.316,53.192,1.467,57.882
		c0.574,1.512,1.045,4.718,1.045,7.125c0,2.406,0.45,4.653,1,4.993c0.55,0.341,1,1.798,1,3.238s0.507,4.228,1.127,6.19
		c2.683,8.504,3.688,11.838,4.842,16.07c0.675,2.476,1.634,5.281,2.13,6.236s0.9,2.383,0.9,3.17c0,0.788,0.633,2.707,1.407,4.265
		c0.774,1.557,1.829,3.955,2.343,5.33c5.521,14.761,24.952,47.657,35.833,60.67c12.28,14.686,28.389,30.547,39.43,38.83
		c2.932,2.2,7.217,5.688,9.521,7.75c2.305,2.063,4.521,3.75,4.924,3.75c0.404,0,2.146,1.013,3.875,2.25
		c1.728,1.237,4.046,2.743,5.154,3.346c1.106,0.603,4.264,2.37,7.014,3.929c12.839,7.273,24.523,12.576,35,15.883
		c4.95,1.563,9.9,3.225,11,3.693c4.988,2.128,19.402,5.804,33,8.413c22.521,4.324,63.377,4.578,84.198,0.523
		c12.045-2.345,14.983-2.962,21.575-4.529c3.725-0.888,8.675-2.285,11-3.106c2.324-0.823,6.187-1.938,8.583-2.477
		c2.396-0.539,6.192-1.868,8.438-2.952c2.245-1.085,4.491-1.973,4.992-1.973c1.451,0,30.178-14.277,30.547-15.183
		c0.185-0.449,0.731-0.817,1.216-0.817c1.423,0,8.652-4.873,21.432-14.443c20.579-15.414,45.834-42.31,58.784-62.604
		c6.85-10.734,18.051-31.98,20.797-39.451c0.404-1.1,1.517-3.769,2.471-5.932c1.988-4.507,6.288-17.396,7.527-22.568
		c0.461-1.925,1.587-5.975,2.502-9c7.206-23.821,7.962-78.918,1.453-106c-0.462-1.925-1.379-5.975-2.037-9
		c-3.718-17.088-13.195-42.286-22.174-58.953c-10.874-20.187-23.262-37.203-39.003-53.577c-5.939-6.18-10.8-11.903-10.8-12.721
		c0-0.816,7.917-9.307,17.592-18.866l17.593-17.383l-0.623-13.5c-0.95-20.626-3.351-33.567-10.105-54.5
		c-1.421-4.399-3.453-9.908-4.52-12.239c-1.063-2.331-1.937-4.619-1.937-5.085c0-2.018-10.435-20.89-16.994-30.736
		c-7.263-10.9-20.229-26.58-28.149-34.042c-7.108-6.696-20.78-17.387-29.549-23.105c-17.289-11.274-41.936-22.358-55.569-24.99
		c-1.52-0.293-3.08-1.043-3.469-1.667c-0.388-0.624-0.563-17.223-0.391-36.885L307.195,11h-7.129
		C295.277,11,292.784,11.41,292.471,12.25"/>
	<g display="inline">
		<path fill="none" stroke="#000000" stroke-miterlimit="10" d="M244.5,94.586c-12.173,0.874-29.944,3.871-37.5,6.323
			c-1.375,0.447-4.3,1.362-6.5,2.034c-8.604,2.628-17.5,6.278-17.5,7.181c0,0.563,7.251,0.971,17.75,1
			c9.763,0.027,22.7,0.349,28.75,0.713l11,0.663l0.284,10.117l0.282,10.116l-49.782,0.729l-49.784,0.729l-3,2.293
			c-8.266,6.318-34.5,35.12-34.5,37.877c0,0.348-1.591,2.848-3.536,5.555c-4.187,5.827-10.914,18.798-14.824,28.583
			c-1.539,3.851-3.212,7.781-3.72,8.736c-0.506,0.955-0.92,2.568-0.92,3.584s-0.321,2.168-0.715,2.562
			c-1.363,1.362-4.883,15.773-6.256,25.618c-0.5,3.575-1.206,8.114-1.572,10.086l-0.665,3.586l39.27,0.664
			c21.597,0.365,52.019,0.664,67.604,0.664H207v10v10l-32.25-0.01c-28.985-0.009-90.651,1.753-91.643,2.618
			c-0.215,0.188,3.955,4.763,9.27,10.166l9.661,9.822l59.731,1.251c32.852,0.688,101.806,1.489,153.229,1.78l93.5,0.528
			l13.045-12.828c7.174-7.055,14.442-14.537,16.151-16.625l3.108-3.797l-0.286-13.203c-0.156-7.262-0.75-15.003-1.315-17.203
			s-1.568-6.475-2.229-9.5c-5.169-23.701-17.099-48.945-33.313-70.5c-11.42-15.181-23.672-26.613-40.761-38.036
			C354.29,122.709,346.935,118,346.556,118s-2.122-1.076-3.873-2.39c-3.272-2.458-17.947-9.61-19.72-9.61
			c-0.545,0-1.771-0.403-2.728-0.898c-2.699-1.397-17.128-5.712-23.236-6.949c-3.024-0.613-7.975-1.614-11-2.225
			C280.41,94.797,253.611,93.932,244.5,94.586"/>
		<path fill="none" stroke="#000000" stroke-miterlimit="10" d="M257.213,122.696l0.287,9.804l29.937,0.266
			c17.775,0.157,30.315-0.117,30.876-0.678c2.206-2.206-0.523-5.873-9.027-12.128l-8.784-6.46l-21.787-0.304l-21.786-0.305
			L257.213,122.696"/>
		<path fill="none" stroke="#000000" stroke-miterlimit="10" d="M249.932,159.469c-2.513,0.706-5.438,1.741-6.5,2.299
			c-1.063,0.557-4.183,2.061-6.933,3.342c-10.216,4.757-22.254,19.56-25.828,31.76c-1.362,4.657-1.382,26.549-0.024,31.146
			c3.998,13.55,15.494,27.269,27.354,32.646c11.459,5.197,18.208,6.709,27,6.051c9.021-0.675,13.398-1.848,21.5-5.757
			c11.497-5.546,22.428-18.015,27.575-31.456c3.06-7.988,3.07-25.793,0.022-34c-4.883-13.142-16.07-25.895-27.599-31.456
			c-3.85-1.857-8.8-3.812-11-4.343C269.186,158.177,254.975,158.048,249.932,159.469"/>
		<path fill="none" stroke="#000000" stroke-miterlimit="10" d="M340,230.975c-0.825,0.547-2.521,1.001-3.771,1.01
			c-3.362,0.021-9.679,4.598-12.899,9.345c-2.568,3.785-2.83,4.97-2.827,12.831c0.002,8.181,0.174,8.873,3.093,12.5
			c1.698,2.111,5.005,5.136,7.347,6.722c3.751,2.539,5.167,2.889,11.907,2.928c6.599,0.038,8.228-0.32,11.831-2.602
			c2.301-1.456,5.656-4.792,7.462-7.415c2.929-4.255,3.285-5.524,3.319-11.781c0.046-8.391-1.757-12.739-7.391-17.829
			C353.248,232.326,342.895,229.055,340,230.975"/>
		<path fill="none" stroke="#000000" stroke-miterlimit="10" d="M381,273.5V284h3.066c6.085,0,6.934-1.219,6.934-9.953
			c0-10.516-0.27-11.047-5.606-11.047H381V273.5"/>
	</g>
	<path display="inline" fill="none" stroke="#000000" stroke-miterlimit="10" d="M107.12,326.39
		c-3.607,2-20.492,18.969-28.966,29.109C63.253,373.338,47.777,399.787,41,419c-0.68,1.926-1.856,4.919-2.617,6.651
		S37,429.495,37,430.342c0,0.848-0.399,1.787-0.891,2.09c-0.488,0.303-1.131,2.017-1.426,3.81c-0.297,1.792-1.006,5.06-1.576,7.259
		c-2.373,9.15-4.26,18.325-4.795,23.306l-0.569,5.306l3.659-2.056c2.012-1.13,4.326-2.056,5.142-2.056
		c0.816,0,2.266-0.39,3.221-0.865c6.019-3.001,9.732-3.589,24.735-3.914c15.749-0.341,22.003,0.51,28.736,3.903
		c0.955,0.482,2.813,0.876,4.127,0.876c1.316,0,2.951,0.676,3.637,1.5c0.687,0.825,1.853,1.5,2.595,1.5
		c0.741,0,3.834,1.1,6.87,2.442l5.521,2.441l2.359-3.191c1.297-1.757,2.653-3.867,3.016-4.692c0.362-0.824,1.488-2.85,2.506-4.5
		c1.017-1.649,2.744-4.574,3.84-6.5c1.094-1.925,4.822-8.449,8.285-14.5c3.463-6.05,7.468-13.188,8.902-15.86l2.604-4.861
		l-3.427-2.639C136.16,413.047,119,394.85,119,392.552c0-0.408-1.014-2.154-2.25-3.883c-3.16-4.41-4.75-7.617-4.75-9.582
		c0-0.928-0.423-2.113-0.938-2.637c-0.519-0.522-1.156-2.147-1.418-3.611c-0.265-1.466-0.967-3.572-1.562-4.686
		c-0.618-1.155-1.073-7.514-1.061-14.837c0.018-10.994,0.367-13.799,2.459-19.727C112.51,325.006,112.064,323.649,107.12,326.39"/>
	<path display="inline" fill="none" stroke="#000000" stroke-miterlimit="10" d="M159.463,326.87
		c-0.804,0.805-0.501,13.078,0.368,14.895c0.457,0.955,1.649,3.311,2.651,5.235c1,1.926,2.426,4.671,3.168,6.102
		c2.992,5.773,18.82,20.284,25.35,23.242c0.825,0.373,2.851,1.541,4.5,2.595c1.65,1.055,3.986,1.949,5.191,1.989
		s2.469,0.522,2.809,1.073c0.34,0.55,1.437,1,2.438,1c1,0,2.395,0.694,3.101,1.546c0.705,0.851,1.914,1.304,2.688,1.007
		c0.771-0.297,2.701,0.133,4.289,0.954c1.588,0.82,4.17,1.493,5.735,1.493c1.568,0,3.277,0.411,3.8,0.915
		c2.139,2.062,46.28,3.984,49.928,2.177c1.112-0.552,4.498-1.213,7.522-1.471c7.62-0.646,11.947-1.541,15.762-3.258
		c1.794-0.808,3.654-1.226,4.138-0.927c0.479,0.297,1.431-0.129,2.109-0.948c0.682-0.818,2.088-1.489,3.128-1.489
		s2.673-0.411,3.628-0.915c0.955-0.505,3.312-1.642,5.235-2.527c7.87-3.625,15.805-9.238,22.75-16.096
		c3.438-3.395,6.25-6.418,6.25-6.721c0-0.302,1.575-3.335,3.5-6.741c2.068-3.658,3.5-7.56,3.5-9.536c0-1.841,0.45-3.623,1-3.964
		c0.55-0.34,1-2.09,1-3.89c0-2.396-0.602-3.57-2.25-4.385c-1.589-0.786-30.234-1.217-97.537-1.465
		C202.805,326.566,159.718,326.616,159.463,326.87"/>
	<path display="inline" fill="none" stroke="#000000" stroke-miterlimit="10" d="M402.677,331.827
		c5.955,18.136,4.71,33.323-4.35,53.032c-4.884,10.627-8.468,15.453-19.456,26.205c-11.004,10.77-10.533,8.512-4.164,19.936
		c1.687,3.025,5.529,10,8.539,15.5c13.385,24.454,15.799,28.5,17.008,28.5c1.112,0,14.494-4.415,18.245-6.02
		c3.314-1.419,9.331-2.111,23-2.651c16.342-0.646,26.178,1.318,37.337,7.449c2.385,1.312,4.588,2.131,4.896,1.823
		c0.905-0.905-3.32-25.034-5.711-32.602c-0.434-1.375-1.343-4.525-2.019-7c-3.328-12.173-15.21-39.783-21.28-49.445
		c-0.672-1.07-3.063-4.896-5.314-8.5c-10.558-16.903-38.289-47.558-45.086-49.836l-3.18-1.066L402.677,331.827"/>
	<path display="inline" fill="none" stroke="#000000" stroke-miterlimit="10" d="M344.5,434.396
		c-4.399,2.303-10.587,4.997-13.748,5.987c-3.162,0.99-6.001,2.21-6.309,2.709c-0.311,0.5-1.858,0.907-3.443,0.907
		s-3.129,0.4-3.432,0.891s-2.017,1.146-3.811,1.458c-4.931,0.86-12.729,2.39-17.759,3.481c-11.739,2.551-19.271,3.171-38.5,3.171
		c-11.423,0-23.746-0.481-27.385-1.068c-16.909-2.73-36.088-7.197-42.615-9.927c-2.821-1.181-4.264-1.753-9.75-3.876
		c-1.237-0.479-4.729-2.054-7.764-3.5c-5.705-2.721-8.986-3.331-8.986-1.674c0,0.526-1.286,3.138-2.856,5.804
		c-2.971,5.035-3.822,6.527-14.148,24.741c-11.492,20.27-12.231,21.733-11.313,22.368c13.479,9.301,12.85,8.765,27.793,23.632
		c12.129,12.068,13.573,13.662,19.037,20.999c1.637,2.2,3.217,4.226,3.512,4.5c1.011,0.945,7.59,10.502,8.262,12
		c0.369,0.825,1.779,3.301,3.134,5.5c3.844,6.247,10.532,18.985,12.864,24.5c0.814,1.926,2.156,5.075,2.982,7
		c0.826,1.926,2.062,5.301,2.741,7.5c0.681,2.2,1.634,4.781,2.115,5.736c0.482,0.955,0.877,2.777,0.877,4.05
		c0,1.273,0.433,2.746,0.961,3.274c0.527,0.528,1.167,2.629,1.42,4.667s0.775,4.217,1.16,4.84
		c0.799,1.292,2.249,10.478,3.109,19.683l0.582,6.25h24.238c13.328,0,26.988,0.288,30.354,0.64c6.043,0.632,6.133,0.604,7.309-2.25
		c0.655-1.589,1.555-6.039,1.996-9.89c0.442-3.85,1.289-9.25,1.883-12s1.34-6.35,1.657-8c0.32-1.649,0.923-3.449,1.34-4
		c0.418-0.55,1.095-2.56,1.503-4.467c0.7-3.274,1.049-4.174,3.487-9.02c0.55-1.093,1-2.6,1-3.348c0-0.747,0.634-2.666,1.408-4.263
		c0.773-1.598,3.022-6.278,4.997-10.403c4.598-9.607,8.475-16.428,12.993-22.854c1.979-2.818,3.602-5.326,3.602-5.573
		c0-2,14.895-19.581,25.942-30.621c15.062-15.052,18.3-17.831,28.795-24.709c6.84-4.481,8.385-6.604,6.401-8.792
		c-0.474-0.522-3.018-5-5.652-9.949c-2.637-4.95-7.33-13.5-10.431-19c-3.102-5.5-6.52-11.731-7.598-13.848
		c-1.077-2.114-2.402-4.703-2.946-5.75C354.221,429.412,353.878,429.49,344.5,434.396"/>
	<path display="inline" fill="none" stroke="#000000" stroke-miterlimit="10" d="M431.319,485.304
		c-3.398,0.658-6.513,1.533-6.916,1.945c-0.405,0.413-1.449,0.749-2.319,0.748c-1.371-0.002-1.542,1.542-1.272,11.5l0.31,11.502
		h2.882c1.584,0,3.157-0.449,3.497-1c0.341-0.55,2.141-1,4-1c1.86,0,3.66-0.449,4-1c0.857-1.386,28.959-1.282,33.43,0.123
		c1.964,0.617,4.353,1.518,5.308,2s2.271,0.877,2.922,0.877c0.65,0,1.991,0.73,2.977,1.621c1.002,0.907,2.521,1.343,3.443,0.987
		c1.36-0.521,1.582-1.76,1.249-6.98c-0.24-3.785-0.993-6.916-1.864-7.758c-2.262-2.184-11.175-8.316-13.962-9.609
		C459.369,484.795,442.892,483.064,431.319,485.304"/>
	<path display="inline" fill="none" stroke="#000000" stroke-miterlimit="10" d="M48.5,523c-0.34,0.551-1.829,1.013-3.309,1.027
		c-1.521,0.016-5.739,2.084-9.691,4.75c-7.444,5.022-8.885,7.768-6.458,12.301c1.065,1.99,2.173,7.248,3.621,17.179
		c0.302,2.065,0.95,4.005,1.442,4.31C34.598,562.869,35,564.415,35,566c0,1.586,0.45,3.16,1,3.5c0.55,0.341,1,1.631,1,2.868
		c0,1.236,0.661,3.123,1.468,4.19c0.809,1.066,1.483,2.734,1.5,3.705c0.02,0.971,0.482,2.657,1.032,3.75s1.45,2.88,2,3.973
		s1,2.838,1,3.878s0.675,2.451,1.5,3.136c0.825,0.686,1.5,2.091,1.5,3.122c0,1.033,0.45,1.878,1,1.878s1,0.588,1,1.305
		c0,1.342,3.527,8.526,7.217,14.695c1.151,1.926,2.591,4.4,3.195,5.5c2.011,3.646,9.84,14.905,14.951,21.5
		c7.128,9.198,32.546,34.648,39.931,39.982c3.413,2.465,9.516,6.881,13.561,9.813c6.758,4.899,7.492,5.203,9.078,3.768
		c0.948-0.858,2.228-1.563,2.84-1.563c1.854,0,12.697-10.599,14.758-14.424c1.059-1.967,2.271-3.576,2.697-3.576
		s0.772-1.098,0.772-2.44s0.45-2.719,1-3.06c0.55-0.34,1.017-1.828,1.035-3.309c0.021-1.479,0.679-3.816,1.465-5.191
		c2.048-3.581,2.048-25.444,0-30.346c-0.825-1.975-1.5-5.152-1.5-7.063s-0.45-3.751-1-4.092c-0.55-0.34-1-1.571-1-2.737
		c0-3.704-2.514-10.306-9.43-24.763c-7.418-15.508-18.086-30.354-30.229-42.065C109.846,543.737,100.029,536,98.126,536
		c-0.652,0-1.447-0.675-1.765-1.5c-0.317-0.824-1.159-1.5-1.873-1.5c-0.715,0-3.254-0.964-5.643-2.142
		c-2.392-1.179-5.472-2.57-6.847-3.093c-1.375-0.523-3.772-1.584-5.331-2.358C75.11,524.634,72.551,524,70.979,524
		c-1.574,0-3.14-0.449-3.479-1c-0.34-0.55-4.615-1-9.5-1S48.84,522.45,48.5,523"/>
	<path display="inline" fill="none" stroke="#000000" stroke-miterlimit="10" d="M445.552,524.918
		c-0.368,0.596-2.581,1.082-4.919,1.082c-2.337,0-5.123,0.661-6.19,1.469c-1.067,0.809-2.735,1.482-3.705,1.5
		c-0.971,0.019-2.545,0.443-3.5,0.947c-0.955,0.505-3.312,1.648-5.235,2.543c-3.25,1.51-5.396,2.726-12.862,7.291
		c-11.167,6.828-32.361,28.008-38.229,38.199c-0.775,1.348-1.754,2.922-2.174,3.5c-3.707,5.1-10.966,18.877-13.985,26.551
		c-0.542,1.375-1.382,3.281-1.868,4.236c-0.484,0.955-0.883,2.558-0.883,3.56c0,1.003-0.661,2.695-1.468,3.764
		c-0.809,1.067-1.483,3.603-1.5,5.633c-0.019,2.029-0.481,3.969-1.032,4.31c-0.55,0.34-1,3.426-1,6.858
		c0,3.434-0.49,6.731-1.09,7.331c-2.179,2.179,1.595,30.617,4.553,34.311c0.661,0.824,1.926,3.074,2.811,5
		c2.06,4.487,8.896,11.035,15.017,14.384l4.79,2.62l2.148-2.002c1.183-1.102,2.51-2.002,2.949-2.002
		c0.732,0,17.669-11.642,18.822-12.938c0.275-0.309,2.75-2.325,5.5-4.482c5.5-4.313,25.029-23.561,28.078-27.672
		c1.058-1.425,4.622-6.149,7.923-10.498c3.3-4.35,6.449-8.63,7-9.516c0.55-0.884,2.297-3.558,3.883-5.94
		c5.072-7.627,14.654-25.834,17.735-33.702c0.485-1.237,1.274-3.264,1.757-4.5c0.481-1.237,1.425-3.601,2.095-5.25
		c1.463-3.599,3.307-9.374,4.947-15.5c0.663-2.476,1.688-5.851,2.278-7.5c0.591-1.65,1.284-4.801,1.541-7
		c0.257-2.2,0.872-4.429,1.364-4.95c0.494-0.521,0.898-2.853,0.898-5.178c0-3.616-0.508-4.646-3.509-7.118
		c-5.079-4.188-11.337-7.409-16.491-8.491C454.36,524.158,446.277,523.742,445.552,524.918"/>
	<path display="inline" fill="none" stroke="#000000" stroke-miterlimit="10" d="M223.667,657.668
		c-0.367,0.365-0.667,2.525-0.667,4.8c0,2.273-0.405,4.562-0.901,5.083c-0.498,0.521-1.107,2.976-1.357,5.449
		c-0.428,4.235-1.907,9.294-3.874,13.236c-0.476,0.955-0.866,2.18-0.866,2.721c0,2.097-6.744,14.998-9.339,17.865
		c-0.913,1.009-1.661,2.267-1.661,2.792s-2.94,3.73-6.536,7.121l-6.533,6.163l4.283,1.115c2.356,0.613,5.637,1.495,7.286,1.958
		c17.605,4.949,59.38,7.635,77.808,5c20.439-2.921,33.692-5.729,33.692-7.138c0-0.492-1.604-2.305-3.565-4.026
		C304.182,713.44,291,693.229,291,688.477c0-0.826-0.396-2.285-0.882-3.24c-1.265-2.49-3.118-10.794-3.118-13.972
		c0-1.488-0.538-5.021-1.194-7.854l-1.197-5.146l-8.053-0.627C265.803,656.802,224.51,656.824,223.667,657.668"/>
	<path display="inline" fill="none" stroke="#000000" stroke-miterlimit="10" d="M330.487,689.014
		c-1.002,1.107-4.223,3.606-7.155,5.555c-2.932,1.945-5.332,4.146-5.332,4.887c0,1.529,11.18,11.546,12.887,11.546
		c0.612,0,1.113,0.362,1.113,0.808s1.754,1.581,3.897,2.526c3.832,1.69,3.975,1.678,8.647-0.808c2.613-1.391,5.46-2.526,6.326-2.526
		c0.926,0-1.196-2.791-5.148-6.775c-3.697-3.727-6.724-7.083-6.724-7.459c0-1.076-5.417-9.766-6.088-9.766
		C332.581,687,331.49,687.906,330.487,689.014"/>
</g>
<g id="圖層_2">
	<g>
		<path fill="none" stroke="#093830" stroke-width="2" stroke-miterlimit="10" d="M244.298,93.37
			c-12.173,0.874-29.945,3.871-37.5,6.323c-1.375,0.447-4.3,1.362-6.5,2.034c-8.605,2.628-17.5,6.277-17.5,7.181
			c0,0.563,7.252,0.97,17.75,1c9.762,0.027,22.7,0.349,28.75,0.713l11,0.663l0.284,10.117l0.281,10.116l-49.781,0.729l-49.784,0.729
			l-3,2.293c-8.267,6.316-34.5,35.12-34.5,37.877c0,0.348-1.591,2.848-3.535,5.555c-4.188,5.827-10.914,18.798-14.826,28.583
			c-1.539,3.852-3.211,7.781-3.719,8.736c-0.506,0.955-0.92,2.567-0.92,3.584c0,1.016-0.322,2.168-0.716,2.562
			c-1.362,1.362-4.883,15.773-6.256,25.618c-0.5,3.575-1.205,8.114-1.571,10.086l-0.664,3.586l39.268,0.664
			c21.599,0.365,52.021,0.664,67.604,0.664h28.336v10v10l-32.25-0.01c-28.986-0.009-90.652,1.753-91.644,2.618
			c-0.215,0.188,3.955,4.763,9.271,10.166l9.662,9.822l59.729,1.251c32.853,0.688,101.807,1.487,153.231,1.778l93.5,0.529
			l13.045-12.828c7.174-7.055,14.441-14.537,16.15-16.625l3.107-3.797l-0.285-13.203c-0.156-7.262-0.75-15.003-1.316-17.203
			c-0.564-2.2-1.566-6.475-2.229-9.5c-5.17-23.701-17.098-48.945-33.313-70.5c-11.42-15.181-23.672-26.614-40.762-38.036
			c-8.609-5.755-15.965-10.464-16.344-10.464s-2.123-1.076-3.873-2.39c-3.273-2.458-17.947-9.61-19.719-9.61
			c-0.545,0-1.773-0.403-2.73-0.898c-2.699-1.396-17.127-5.712-23.234-6.948c-3.025-0.613-7.977-1.614-11-2.227
			C280.207,93.581,253.408,92.718,244.298,93.37"/>
		<path fill="none" stroke="#093830" stroke-width="2" stroke-miterlimit="10" d="M257.011,121.481l0.287,9.804l29.936,0.267
			c17.777,0.156,30.316-0.117,30.877-0.679c2.205-2.206-0.523-5.873-9.027-12.128l-8.785-6.46l-21.787-0.304l-21.787-0.305
			L257.011,121.481"/>
		<path fill="none" stroke="#093830" stroke-width="2" stroke-miterlimit="10" d="M249.73,158.253
			c-2.512,0.707-5.436,1.742-6.5,2.301c-1.061,0.557-4.182,2.061-6.932,3.342c-10.216,4.757-22.255,19.56-25.828,31.76
			c-1.363,4.657-1.381,26.549-0.025,31.146c3.998,13.55,15.494,27.269,27.354,32.646c11.459,5.197,18.209,6.709,27,6.051
			c9.02-0.675,13.398-1.848,21.5-5.757c11.498-5.546,22.428-18.015,27.576-31.456c3.059-7.989,3.07-25.793,0.021-34
			c-4.881-13.142-16.07-25.895-27.598-31.456c-3.852-1.856-8.801-3.812-11-4.343C268.982,156.961,254.772,156.832,249.73,158.253"/>
		<path fill="none" stroke="#093830" stroke-width="2" stroke-miterlimit="10" d="M339.799,229.761
			c-0.824,0.547-2.521,1.001-3.771,1.01c-3.363,0.021-9.678,4.598-12.9,9.345c-2.566,3.785-2.828,4.97-2.824,12.831
			c0.002,8.181,0.172,8.873,3.092,12.5c1.699,2.111,5.004,5.136,7.346,6.722c3.752,2.539,5.168,2.89,11.908,2.929
			c6.598,0.038,8.227-0.32,11.83-2.603c2.301-1.456,5.656-4.792,7.463-7.415c2.928-4.255,3.285-5.523,3.318-11.782
			c0.047-8.39-1.758-12.737-7.391-17.827C353.047,231.111,342.691,227.84,339.799,229.761"/>
		<path fill="none" stroke="#093830" stroke-width="2" stroke-miterlimit="10" d="M380.799,272.284v10.5h3.064
			c6.086,0,6.936-1.219,6.936-9.953c0-10.516-0.271-11.047-5.607-11.047h-4.393V272.284"/>
	</g>
	<path fill="none" stroke="#093830" stroke-width="2" stroke-miterlimit="10" d="M422.441,318.534c0-0.279,0.939-1.47,2.549-3.279
		l8.26-8.271l24.191-24.19c0.01-0.109,0.01-0.229,0.01-0.34l0.17-0.17l-0.131-2.91c0.01-0.62,0.021-1.22,0.021-1.84
		c0-55.64-22.602-105.99-59.15-142.33c-0.25-0.27-0.5-0.52-0.76-0.77c-0.25-0.261-0.5-0.511-0.76-0.761
		c-0.102-0.109-0.189-0.199-0.289-0.279c-0.41-0.42-0.83-0.82-1.25-1.21c-0.053-0.061-0.102-0.101-0.15-0.141
		c-19.23-18.33-42.1-32.87-67.4-42.439c-4.971-1.96-9.631-3.55-13.648-4.61c-2.131-0.64-4.281-1.24-6.441-1.81
		c-0.449-0.25-0.799-0.521-0.949-0.771c-0.391-0.62-0.561-17.22-0.391-36.88l0.32-35.75h-7.129c-4.791,0-7.291,0.41-7.602,1.25
		c-0.26,0.69-0.58,16.101-0.721,34.25l-0.25,33l-5.5-0.21c-3.029-0.11-8.65-0.56-12.5-1l-7-0.79v-34h-1h-13l-0.28,15.93
		c-0.16,9.671-0.7,16.45-1.37,17.25c-0.688,0.83-3.35,1.32-7.158,1.32c-3.342,0-8.802,0.48-12.132,1.07
		c-17.88,3.17-23.34,4.22-26.06,5.02c-38.25,11.17-65.48,26.931-91.54,52.99c-24.03,24.03-38.55,48.05-50.43,83.42
		c-4.41,13.14-7.58,32.521-8.182,50l-0.408,11.92l1.68,1.681v0.021c0-0.007-0.001-0.014-0.001-0.021l-1.682-1.682l-0.003,0.081
		l1.686,1.704v0.006l15.35,15.521c2.972,3.01,5.771,5.899,8.21,8.47c4.513,4.752,7.775,8.403,8.606,9.645l335.075,3.373
		C422.754,319.256,422.441,318.738,422.441,318.534z"/>
	<path fill="none" stroke="#093830" stroke-width="2" stroke-miterlimit="10" d="M426.314,321.965
		c-0.631-0.763-1.15-1.421-1.549-1.963l-335.074-3.373c0.135,0.202,0.213,0.349,0.213,0.416c0,0.359-0.68,1.35-1.77,2.659
		c-7.23,6.69-14.051,13.82-20.431,21.33c-36.641,43.12-58.76,98.971-58.76,160c0,11.24,0.771,22.289,2.219,33.129
		c0.121,1.121,0.25,2.063,0.392,2.781c0.41,2.799,0.85,5.58,1.35,8.35c0,2.32,0.42,4.48,0.941,4.932
		c2.549,12.619,6.059,24.889,10.449,36.729c0.17,0.521,0.379,1.08,0.618,1.641c17.591,46.439,48.74,86.189,88.642,114.41
		c1.858,1.59,3.471,2.779,3.811,2.779c0.07,0,0.189,0.039,0.33,0.1c39.459,26.721,87.06,42.33,138.31,42.33
		c47.02,0,90.971-13.141,128.391-35.959c1.359-0.689,3.551-2.08,6.541-4.141c27-17.65,50.318-40.439,68.609-66.99
		c0.607-0.869,1.209-1.74,1.777-2.59c0.611-0.91,1.211-1.83,1.813-2.75c0.01-0.02,0.02-0.029,0.029-0.051
		c0.102-0.17,0.211-0.34,0.318-0.51c7.09-10.949,13.32-22.48,18.621-34.521c0.01-0.02,0.01-0.029,0.021-0.049
		c0.078-0.16,0.148-0.32,0.209-0.471c0.041-0.08,0.078-0.16,0.109-0.24c0.039-0.09,0.08-0.17,0.119-0.26
		c0.07-0.16,0.141-0.32,0.211-0.49c0.07-0.148,0.129-0.299,0.199-0.459c0.041-0.08,0.07-0.16,0.1-0.24
		c0.102-0.24,0.201-0.479,0.303-0.711c1.02-2.379,2.01-4.77,2.947-7.189c0.041-0.078,0.08-0.158,0.111-0.238
		c1.988-4.512,6.289-17.4,7.529-22.57c0.08-0.34,0.189-0.77,0.311-1.25c0.039-0.16,0.09-0.33,0.129-0.49
		c0.063-0.229,0.131-0.471,0.191-0.699c0.059-0.211,0.109-0.42,0.17-0.641c0.521-1.891,1.148-4.09,1.699-5.92
		c1.91-6.311,3.359-14.82,4.35-24.41c1.471-10.91,2.24-22.029,2.24-33.34c0-59.27-20.859-113.66-55.619-156.25
		C440.875,336.744,433.824,329.115,426.314,321.965z"/>
	<g>
		<path fill="#3A6059" d="M256.002,463.547c37.972,0,68.865,30.893,68.865,68.865s-30.893,68.865-68.865,68.865
			c-37.975,0-68.867-30.893-68.867-68.865S218.028,463.547,256.002,463.547 M256.002,461.547c-39.14,0-70.867,31.727-70.867,70.865
			s31.729,70.865,70.867,70.865c39.138,0,70.865-31.727,70.865-70.865S295.14,461.547,256.002,461.547L256.002,461.547z"/>
		<path fill="#3A6059" d="M256.002,461.547c39.138,0,70.865,31.727,70.865,70.865s-31.727,70.865-70.865,70.865
			c-39.139,0-70.867-31.727-70.867-70.865S216.863,461.547,256.002,461.547 M256.002,379.547c-20.602,0-40.63,4.053-59.527,12.047
			c-18.213,7.703-34.553,18.713-48.565,32.725c-14.013,14.014-25.022,30.354-32.728,48.566
			c-7.994,18.898-12.047,38.928-12.047,59.527s4.053,40.629,12.047,59.527c7.704,18.213,18.715,34.553,32.728,48.566
			c14.014,14.012,30.354,25.021,48.565,32.725c18.897,7.994,38.927,12.047,59.527,12.047c20.599,0,40.628-4.053,59.527-12.047
			c18.213-7.703,34.553-18.713,48.564-32.727s25.023-30.354,32.727-48.564c7.994-18.898,12.047-38.928,12.047-59.527
			s-4.053-40.629-12.047-59.527c-7.703-18.213-18.713-34.553-32.727-48.564s-30.352-25.023-48.564-32.727
			C296.631,383.599,276.603,379.547,256.002,379.547L256.002,379.547z"/>
		<g>
			
				<image overflow="visible" enable-background="new    " width="322" height="321" xlink:href="AC3258F.png"  transform="matrix(0.9969 0 0 0.9969 95.9963 372.9949)">
			</image>
			<path fill="#ECE9E2" d="M256.002,461.547c39.138,0,70.865,31.727,70.865,70.865s-31.727,70.865-70.865,70.865
				c-39.139,0-70.867-31.727-70.867-70.865S216.863,461.547,256.002,461.547 M256.002,381.547c-20.332,0-40.099,4-58.748,11.889
				c-17.976,7.602-34.102,18.469-47.932,32.297c-13.83,13.83-24.697,29.957-32.3,47.932c-7.889,18.65-11.889,38.416-11.889,58.748
				s4,40.1,11.889,58.75c7.604,17.975,18.47,34.102,32.3,47.932c13.83,13.828,29.956,24.693,47.932,32.297
				c18.649,7.889,38.416,11.889,58.748,11.889c20.332,0,40.097-4,58.748-11.889c17.977-7.604,34.102-18.469,47.932-32.299
				c13.828-13.83,24.695-29.955,32.299-47.932c7.887-18.65,11.887-38.416,11.887-58.748c0-20.33-4-40.096-11.887-58.746
				c-7.604-17.977-18.471-34.102-32.299-47.932c-13.83-13.83-29.955-24.697-47.932-32.299
				C296.099,385.547,276.334,381.547,256.002,381.547L256.002,381.547z"/>
		</g>
	</g>
</g>
</svg>
