<?xml version="1.0" encoding="utf-8"?>
<!-- Generator: Adobe Illustrator 16.0.0, SVG Export Plug-In . SVG Version: 6.00 Build 0)  -->
<!DOCTYPE svg PUBLIC "-//W3C//DTD SVG 1.1//EN" "http://www.w3.org/Graphics/SVG/1.1/DTD/svg11.dtd">
<svg version="1.1" xmlns="http://www.w3.org/2000/svg" xmlns:xlink="http://www.w3.org/1999/xlink" x="0px" y="0px" width="512px"
	 height="758px" viewBox="744 0 512 758" enable-background="new 744 0 512 758" xml:space="preserve">
<g id="圖層_1" display="none">
	<path display="inline" fill="none" stroke="#000000" stroke-miterlimit="10" d="M292.471,12.25c-0.257,0.688-0.58,16.1-0.719,34.25
		l-0.252,33l-5.5-0.209c-3.025-0.115-8.65-0.565-12.5-1l-7-0.791l-0.5-17l-0.5-17H259h-6.5l-0.275,15.929
		c-0.168,9.671-0.707,16.448-1.373,17.25c-0.688,0.829-3.356,1.321-7.164,1.321c-3.336,0-8.795,0.483-12.127,1.074
		c-17.883,3.169-23.34,4.219-26.061,5.014c-38.25,11.171-65.479,26.934-91.538,52.995c-24.03,24.03-38.551,48.05-50.429,83.417
		c-4.414,13.143-7.586,32.517-8.186,50l-0.412,12l17.031,17.232C81.335,309.21,89,317.549,89,318.263
		c0,0.715-2.742,3.986-6.092,7.268c-8.032,7.869-19.299,21.176-29.09,34.358c-6.988,9.409-19.11,31.14-24.605,44.111
		c-9.699,22.894-15.615,44.474-18.316,66.822c-0.51,4.223-1.145,9.027-1.408,10.678c-1.437,8.987-0.316,53.192,1.467,57.881
		c0.574,1.512,1.045,4.718,1.045,7.125s0.45,4.654,1,4.994s1,1.797,1,3.238c0,1.44,0.507,4.227,1.127,6.19
		c2.682,8.504,3.688,11.838,4.841,16.071c0.675,2.475,1.634,5.281,2.13,6.236S23,585.618,23,586.405
		c0,0.788,0.633,2.707,1.407,4.264s1.829,3.956,2.343,5.331c5.521,14.76,24.952,47.657,35.833,60.669
		c12.28,14.686,28.388,30.547,39.429,38.831c2.932,2.2,7.217,5.688,9.521,7.75c2.305,2.063,4.521,3.75,4.924,3.75
		c0.404,0,2.146,1.012,3.875,2.25c1.727,1.237,4.046,2.743,5.154,3.345c1.107,0.603,4.264,2.37,7.014,3.929
		c12.839,7.273,24.523,12.576,35,15.883c4.95,1.562,9.9,3.224,11,3.693c4.988,2.128,19.402,5.804,33,8.413
		c22.52,4.324,63.377,4.578,84.198,0.524c12.045-2.345,14.983-2.962,21.575-4.53c3.725-0.887,8.675-2.285,11-3.106
		c2.324-0.823,6.187-1.938,8.583-2.477c2.396-0.539,6.193-1.868,8.438-2.952c2.245-1.085,4.491-1.972,4.992-1.972
		c1.451,0,30.178-14.278,30.547-15.183c0.184-0.449,0.731-0.817,1.216-0.817c1.422,0,8.652-4.873,21.431-14.444
		c20.579-15.414,45.834-42.309,58.784-62.604c6.85-10.735,18.051-31.981,20.797-39.451c0.404-1.1,1.517-3.769,2.471-5.932
		c1.988-4.507,6.288-17.396,7.527-22.568c0.461-1.925,1.587-5.975,2.502-9c7.206-23.822,7.962-78.918,1.453-106
		c-0.462-1.925-1.379-5.975-2.037-9c-3.718-17.088-13.195-42.287-22.174-58.954c-10.874-20.186-23.262-37.203-39.003-53.577
		c-5.939-6.179-10.8-11.903-10.8-12.72s7.917-9.307,17.592-18.867l17.593-17.382l-0.623-13.5c-0.95-20.626-3.351-33.568-10.106-54.5
		c-1.42-4.4-3.453-9.908-4.519-12.239c-1.064-2.332-1.937-4.62-1.937-5.085c0-2.018-10.434-20.89-16.994-30.737
		c-7.262-10.9-20.228-26.58-28.149-34.042c-7.108-6.696-20.78-17.386-29.549-23.105c-17.289-11.275-41.935-22.359-55.569-24.99
		c-1.52-0.293-3.08-1.043-3.469-1.667c-0.388-0.624-0.563-17.223-0.39-36.885L307.195,11h-7.129
		C295.277,11,292.784,11.41,292.471,12.25"/>
	<g display="inline">
		<path fill="none" stroke="#000000" stroke-miterlimit="10" d="M244.5,94.586c-12.173,0.874-29.945,3.871-37.5,6.323
			c-1.375,0.447-4.3,1.362-6.5,2.034c-8.605,2.628-17.5,6.278-17.5,7.181c0,0.562,7.251,0.97,17.75,1
			c9.762,0.027,22.7,0.348,28.75,0.713l11,0.663l0.284,10.117l0.282,10.116l-49.782,0.73l-49.784,0.729l-3,2.293
			c-8.266,6.318-34.5,35.12-34.5,37.877c0,0.348-1.591,2.848-3.536,5.555c-4.187,5.827-10.914,18.798-14.825,28.583
			c-1.539,3.85-3.212,7.781-3.719,8.736c-0.506,0.955-0.92,2.568-0.92,3.584c0,1.016-0.322,2.168-0.715,2.562
			c-1.363,1.362-4.883,15.773-6.256,25.618c-0.5,3.575-1.206,8.114-1.572,10.086l-0.665,3.586l39.269,0.664
			c21.597,0.365,52.019,0.664,67.604,0.664H207v10v10l-32.25-0.01c-28.986-0.009-90.652,1.753-91.643,2.618
			c-0.215,0.189,3.955,4.763,9.27,10.166l9.661,9.822l59.731,1.251c32.852,0.688,101.806,1.489,153.23,1.78l93.5,0.529
			l13.044-12.828c7.174-7.055,14.443-14.537,16.152-16.625l3.108-3.797l-0.286-13.203c-0.156-7.262-0.75-15.003-1.315-17.203
			c-0.566-2.2-1.569-6.475-2.229-9.5c-5.169-23.701-17.098-48.946-33.313-70.5c-11.42-15.181-23.672-26.614-40.761-38.036
			C354.29,122.709,346.935,118,346.556,118s-2.122-1.076-3.873-2.39c-3.272-2.458-17.947-9.61-19.719-9.61
			c-0.545,0-1.772-0.404-2.728-0.899c-2.699-1.397-17.128-5.712-23.236-6.949c-3.025-0.613-7.975-1.614-11-2.225
			C280.41,94.797,253.611,93.932,244.5,94.586"/>
		<path fill="none" stroke="#000000" stroke-miterlimit="10" d="M257.213,122.696l0.287,9.804l29.936,0.265
			c17.776,0.158,30.316-0.117,30.876-0.677c2.206-2.206-0.523-5.873-9.027-12.128l-8.784-6.46l-21.787-0.304l-21.787-0.305
			L257.213,122.696"/>
		<path fill="none" stroke="#000000" stroke-miterlimit="10" d="M249.932,159.469c-2.512,0.707-5.437,1.742-6.5,2.299
			c-1.062,0.557-4.182,2.061-6.932,3.342c-10.216,4.757-22.254,19.56-25.828,31.76c-1.363,4.657-1.382,26.549-0.025,31.145
			c3.998,13.55,15.494,27.269,27.354,32.647c11.459,5.197,18.208,6.709,27,6.051c9.02-0.675,13.398-1.848,21.5-5.757
			c11.497-5.546,22.427-18.015,27.575-31.456c3.059-7.989,3.07-25.793,0.022-34c-4.882-13.142-16.07-25.895-27.598-31.456
			c-3.85-1.858-8.8-3.812-11-4.343C269.186,158.177,254.975,158.048,249.932,159.469"/>
		<path fill="none" stroke="#000000" stroke-miterlimit="10" d="M340,230.975c-0.825,0.547-2.522,1.001-3.771,1.01
			c-3.362,0.022-9.678,4.598-12.899,9.345c-2.569,3.785-2.83,4.97-2.827,12.831c0.002,8.181,0.173,8.873,3.092,12.5
			c1.699,2.111,5.005,5.136,7.347,6.722c3.751,2.539,5.167,2.888,11.907,2.927c6.599,0.038,8.228-0.32,11.831-2.601
			c2.301-1.456,5.657-4.792,7.462-7.415c2.929-4.255,3.285-5.525,3.32-11.782c0.046-8.39-1.757-12.739-7.391-17.829
			C353.248,232.326,342.895,229.055,340,230.975"/>
		<path fill="none" stroke="#000000" stroke-miterlimit="10" d="M381,273.5V284h3.066c6.085,0,6.934-1.219,6.934-9.953
			c0-10.516-0.27-11.047-5.607-11.047H381V273.5"/>
	</g>
	<path display="inline" fill="none" stroke="#000000" stroke-miterlimit="10" d="M107.12,326.39
		c-3.608,2-20.492,18.969-28.966,29.11C63.253,373.337,47.777,399.787,41,419c-0.68,1.925-1.857,4.918-2.617,6.651
		c-0.761,1.732-1.383,3.844-1.383,4.69c0,0.848-0.4,1.787-0.891,2.09c-0.488,0.303-1.131,2.017-1.426,3.81
		c-0.297,1.792-1.006,5.059-1.576,7.259c-2.373,9.15-4.26,18.325-4.795,23.305l-0.569,5.306l3.659-2.056
		c2.012-1.13,4.326-2.055,5.142-2.055s2.265-0.39,3.22-0.866c6.019-3.001,9.733-3.589,24.736-3.914
		c15.749-0.341,22.003,0.51,28.736,3.904c0.955,0.482,2.813,0.876,4.127,0.876c1.316,0,2.951,0.675,3.637,1.5s1.852,1.5,2.594,1.5
		s3.834,1.099,6.871,2.442l5.521,2.441l2.359-3.191c1.297-1.757,2.654-3.867,3.016-4.692s1.488-2.85,2.506-4.5
		c1.017-1.65,2.744-4.575,3.84-6.5c1.094-1.925,4.822-8.45,8.285-14.5s7.468-13.188,8.902-15.861l2.605-4.861l-3.427-2.639
		C136.16,413.046,119,394.85,119,392.551c0-0.408-1.014-2.154-2.25-3.883c-3.16-4.41-4.75-7.617-4.75-9.582
		c0-0.927-0.423-2.113-0.939-2.636c-0.518-0.523-1.156-2.148-1.418-3.612c-0.264-1.465-0.966-3.572-1.561-4.685
		c-0.618-1.155-1.073-7.514-1.061-14.837c0.018-10.994,0.367-13.799,2.459-19.727C112.51,325.005,112.064,323.649,107.12,326.39"/>
	<path display="inline" fill="none" stroke="#000000" stroke-miterlimit="10" d="M159.463,326.87
		c-0.804,0.804-0.501,13.078,0.368,14.894c0.457,0.955,1.649,3.311,2.651,5.236c1,1.925,2.426,4.67,3.168,6.101
		c2.992,5.773,18.82,20.284,25.35,23.242c0.825,0.373,2.85,1.541,4.5,2.595c1.65,1.055,3.986,1.949,5.191,1.989
		s2.469,0.523,2.809,1.073s1.436,1,2.438,1c1,0,2.395,0.695,3.101,1.546c0.705,0.851,1.914,1.304,2.687,1.007
		c0.771-0.297,2.701,0.133,4.289,0.954s4.17,1.493,5.736,1.493c1.568,0,3.277,0.412,3.8,0.916c2.138,2.061,46.28,3.984,49.927,2.176
		c1.113-0.551,4.498-1.213,7.523-1.47c7.62-0.647,11.947-1.541,15.761-3.258c1.794-0.808,3.655-1.226,4.138-0.927
		c0.48,0.297,1.431-0.129,2.11-0.948c0.681-0.819,2.087-1.489,3.127-1.489s2.673-0.412,3.628-0.916s3.312-1.641,5.236-2.527
		c7.87-3.625,15.804-9.238,22.75-16.096c3.438-3.394,6.25-6.418,6.25-6.72c0-0.302,1.575-3.335,3.5-6.741
		c2.068-3.659,3.5-7.56,3.5-9.537c0-1.84,0.45-3.623,1-3.963s1-2.09,1-3.89c0-2.397-0.602-3.57-2.25-4.385
		c-1.589-0.786-30.235-1.217-97.537-1.465C202.805,326.566,159.718,326.616,159.463,326.87"/>
	<path display="inline" fill="none" stroke="#000000" stroke-miterlimit="10" d="M402.677,331.827
		c5.956,18.135,4.71,33.323-4.349,53.032c-4.884,10.627-8.468,15.453-19.456,26.205c-11.004,10.769-10.533,8.512-4.164,19.936
		c1.686,3.025,5.529,10,8.539,15.5c13.385,24.454,15.799,28.5,17.008,28.5c1.112,0,14.494-4.416,18.245-6.02
		c3.314-1.419,9.331-2.111,23-2.651c16.341-0.646,26.177,1.318,37.336,7.449c2.385,1.311,4.588,2.131,4.896,1.823
		c0.905-0.905-3.32-25.034-5.711-32.602c-0.434-1.375-1.343-4.525-2.019-7c-3.328-12.172-15.21-39.783-21.28-49.445
		c-0.672-1.07-3.063-4.896-5.314-8.5c-10.558-16.903-38.289-47.557-45.086-49.836l-3.18-1.066L402.677,331.827"/>
	<path display="inline" fill="none" stroke="#000000" stroke-miterlimit="10" d="M344.5,434.396
		c-4.4,2.303-10.587,4.997-13.748,5.987c-3.162,0.991-6.001,2.21-6.309,2.709c-0.31,0.5-1.858,0.908-3.443,0.908
		s-3.129,0.4-3.432,0.89s-2.017,1.146-3.81,1.458c-4.931,0.86-12.729,2.39-17.759,3.482c-11.74,2.55-19.271,3.17-38.5,3.17
		c-11.423,0-23.746-0.481-27.385-1.068c-16.909-2.73-36.088-7.197-42.615-9.927c-2.822-1.18-4.264-1.753-9.75-3.876
		c-1.238-0.478-4.73-2.053-7.764-3.5c-5.705-2.72-8.986-3.331-8.986-1.673c0,0.526-1.286,3.137-2.857,5.803
		c-2.97,5.035-3.822,6.528-14.148,24.741c-11.492,20.27-12.232,21.734-11.313,22.369c13.479,9.3,12.85,8.764,27.793,23.631
		c12.129,12.069,13.574,13.663,19.037,21c1.637,2.2,3.217,4.225,3.512,4.5c1.011,0.945,7.59,10.501,8.262,12
		c0.369,0.825,1.779,3.3,3.134,5.5c3.843,6.247,10.532,18.985,12.864,24.5c0.814,1.925,2.156,5.075,2.982,7
		c0.827,1.925,2.062,5.3,2.742,7.5c0.68,2.2,1.633,4.781,2.115,5.736s0.877,2.777,0.877,4.05s0.432,2.746,0.961,3.274
		c0.527,0.528,1.167,2.629,1.42,4.667s0.775,4.217,1.16,4.84c0.799,1.292,2.249,10.477,3.109,19.683l0.582,6.25h24.238
		c13.329,0,26.989,0.288,30.354,0.639c6.043,0.632,6.133,0.605,7.309-2.25c0.655-1.589,1.554-6.039,1.996-9.889s1.289-9.25,1.882-12
		c0.594-2.75,1.34-6.35,1.658-8c0.32-1.65,0.923-3.45,1.34-4c0.418-0.55,1.094-2.56,1.502-4.467c0.701-3.275,1.049-4.174,3.488-9.02
		c0.55-1.093,1-2.599,1-3.347s0.634-2.666,1.408-4.263c0.773-1.598,3.022-6.279,4.997-10.404
		c4.598-9.607,8.475-16.427,12.993-22.854c1.98-2.818,3.602-5.326,3.602-5.573c0-2,14.894-19.581,25.942-30.621
		c15.062-15.052,18.3-17.831,28.795-24.709c6.84-4.482,8.385-6.604,6.401-8.792c-0.473-0.523-3.017-5-5.652-9.95
		c-2.637-4.95-7.33-13.5-10.431-19s-6.519-11.731-7.597-13.847c-1.077-2.115-2.403-4.703-2.946-5.75
		C354.221,429.412,353.878,429.49,344.5,434.396"/>
	<path display="inline" fill="none" stroke="#000000" stroke-miterlimit="10" d="M431.319,485.304
		c-3.399,0.658-6.513,1.533-6.916,1.946c-0.405,0.413-1.449,0.749-2.32,0.748c-1.37-0.002-1.541,1.542-1.272,11.5L421.121,511h2.881
		c1.584,0,3.158-0.45,3.498-1s2.14-1,4-1s3.66-0.45,4-1c0.857-1.386,28.959-1.283,33.429,0.123c1.964,0.617,4.353,1.517,5.308,2
		c0.955,0.482,2.27,0.877,2.922,0.877c0.65,0,1.991,0.73,2.976,1.621c1.002,0.907,2.521,1.342,3.444,0.987
		c1.36-0.522,1.582-1.76,1.249-6.981c-0.241-3.785-0.994-6.916-1.865-7.757c-2.261-2.184-11.174-8.317-13.962-9.61
		C459.369,484.794,442.892,483.064,431.319,485.304"/>
	<path display="inline" fill="none" stroke="#000000" stroke-miterlimit="10" d="M48.5,523c-0.34,0.55-1.829,1.012-3.309,1.027
		c-1.52,0.015-5.739,2.084-9.691,4.75c-7.445,5.022-8.885,7.767-6.458,12.301c1.065,1.99,2.173,7.248,3.621,17.178
		c0.302,2.066,0.95,4.005,1.442,4.31C34.598,562.869,35,564.415,35,566s0.45,3.16,1,3.5s1,1.63,1,2.868
		c0,1.236,0.661,3.123,1.468,4.19c0.808,1.067,1.483,2.735,1.5,3.705c0.019,0.971,0.482,2.657,1.032,3.75s1.45,2.88,2,3.973
		s1,2.838,1,3.878s0.675,2.451,1.5,3.136s1.5,2.09,1.5,3.122c0,1.033,0.45,1.878,1,1.878s1,0.587,1,1.304
		c0,1.342,3.527,8.527,7.217,14.696c1.151,1.925,2.59,4.4,3.195,5.5c2.011,3.646,9.84,14.905,14.951,21.5
		c7.128,9.198,32.546,34.648,39.931,39.982c3.413,2.465,9.515,6.881,13.56,9.812c6.758,4.9,7.492,5.204,9.078,3.768
		c0.949-0.858,2.228-1.562,2.84-1.562c1.854,0,12.697-10.599,14.758-14.424c1.059-1.967,2.272-3.576,2.697-3.576
		c0.426,0,0.773-1.098,0.773-2.441c0-1.343,0.45-2.719,1-3.059s1.016-1.829,1.035-3.309c0.02-1.48,0.679-3.816,1.465-5.191
		c2.048-3.582,2.048-25.445,0-30.346c-0.825-1.975-1.5-5.153-1.5-7.063s-0.45-3.751-1-4.091s-1-1.572-1-2.738
		c0-3.704-2.514-10.306-9.43-24.762c-7.418-15.508-18.086-30.354-30.228-42.066C109.846,543.737,100.029,536,98.126,536
		c-0.653,0-1.448-0.675-1.765-1.5s-1.159-1.5-1.873-1.5c-0.715,0-3.254-0.964-5.643-2.142c-2.391-1.179-5.471-2.57-6.846-3.093
		s-3.773-1.584-5.331-2.358S72.551,524,70.979,524c-1.574,0-3.139-0.45-3.479-1s-4.615-1-9.5-1S48.84,522.45,48.5,523"/>
	<path display="inline" fill="none" stroke="#000000" stroke-miterlimit="10" d="M445.551,524.917
		c-0.368,0.596-2.581,1.083-4.919,1.083c-2.337,0-5.123,0.661-6.19,1.468c-1.067,0.809-2.735,1.483-3.705,1.5
		c-0.971,0.019-2.545,0.444-3.5,0.948s-3.312,1.648-5.236,2.542c-3.249,1.51-5.395,2.726-12.862,7.292
		c-11.167,6.828-32.361,28.007-38.228,38.199c-0.776,1.347-1.754,2.922-2.174,3.5c-3.707,5.099-10.966,18.877-13.985,26.551
		c-0.542,1.375-1.382,3.281-1.868,4.236c-0.485,0.955-0.883,2.557-0.883,3.559c0,1.003-0.661,2.696-1.468,3.764
		c-0.809,1.067-1.483,3.603-1.5,5.633c-0.019,2.029-0.482,3.969-1.032,4.309s-1,3.426-1,6.859c0,3.433-0.491,6.731-1.09,7.331
		c-2.179,2.179,1.595,30.617,4.553,34.31c0.661,0.825,1.925,3.075,2.81,5c2.06,4.488,8.896,11.036,15.017,14.384l4.79,2.62
		l2.148-2.002c1.183-1.101,2.51-2.002,2.949-2.002c0.733,0,17.669-11.641,18.823-12.938c0.275-0.309,2.75-2.325,5.5-4.482
		c5.5-4.313,25.029-23.561,28.078-27.672c1.057-1.425,4.622-6.15,7.922-10.498c3.3-4.35,6.45-8.63,7-9.516
		c0.55-0.884,2.297-3.558,3.883-5.94c5.073-7.627,14.655-25.834,17.736-33.703c0.485-1.237,1.274-3.263,1.756-4.5
		c0.482-1.237,1.425-3.6,2.095-5.25c1.463-3.598,3.307-9.374,4.947-15.5c0.664-2.475,1.689-5.85,2.279-7.5
		c0.591-1.65,1.284-4.8,1.541-7s0.872-4.428,1.364-4.95c0.494-0.521,0.898-2.852,0.898-5.177c0-3.617-0.507-4.646-3.508-7.119
		c-5.079-4.187-11.337-7.409-16.492-8.491C454.36,524.158,446.277,523.742,445.551,524.917"/>
	<path display="inline" fill="none" stroke="#000000" stroke-miterlimit="10" d="M223.667,657.667
		c-0.367,0.366-0.667,2.526-0.667,4.8s-0.406,4.562-0.902,5.083c-0.498,0.522-1.107,2.976-1.357,5.45
		c-0.428,4.235-1.907,9.293-3.874,13.236c-0.476,0.955-0.866,2.18-0.866,2.721c0,2.096-6.744,14.998-9.339,17.865
		c-0.913,1.009-1.661,2.266-1.661,2.792c0,0.525-2.941,3.73-6.536,7.121l-6.534,6.163l4.284,1.115
		c2.356,0.613,5.636,1.495,7.286,1.958c17.605,4.949,59.38,7.635,77.807,5c20.44-2.921,33.693-5.729,33.693-7.138
		c0-0.492-1.605-2.304-3.566-4.026C304.182,713.44,291,693.229,291,688.477c0-0.826-0.396-2.285-0.882-3.24
		c-1.265-2.49-3.118-10.794-3.118-13.972c0-1.488-0.538-5.021-1.195-7.853l-1.197-5.146l-8.053-0.627
		C265.803,656.802,224.51,656.824,223.667,657.667"/>
	<path display="inline" fill="none" stroke="#000000" stroke-miterlimit="10" d="M330.487,689.014
		c-1.002,1.108-4.223,3.607-7.155,5.555c-2.932,1.945-5.332,4.145-5.332,4.887c0,1.529,11.179,11.545,12.886,11.545
		c0.613,0,1.114,0.363,1.114,0.808s1.754,1.581,3.897,2.526c3.832,1.691,3.975,1.678,8.648-0.807
		c2.613-1.391,5.46-2.527,6.326-2.527c0.926,0-1.196-2.791-5.149-6.775c-3.697-3.726-6.723-7.083-6.723-7.459
		c0-1.076-5.417-9.766-6.088-9.766C332.581,687,331.49,687.906,330.487,689.014"/>
</g>
<g id="圖層_2">
	<g>
		<path fill="none" stroke="#093830" stroke-width="2" stroke-miterlimit="10" d="M988.297,93.371
			c-12.172,0.874-29.945,3.871-37.5,6.323c-1.375,0.447-4.299,1.362-6.5,2.034c-8.605,2.628-17.5,6.278-17.5,7.181
			c0,0.563,7.252,0.97,17.75,1c9.762,0.027,22.701,0.349,28.75,0.713l11,0.663l0.285,10.117l0.281,10.116l-49.781,0.729
			l-49.785,0.729l-3,2.293c-8.266,6.317-34.5,35.12-34.5,37.877c0,0.348-1.59,2.848-3.535,5.555
			c-4.188,5.827-10.914,18.798-14.826,28.583c-1.539,3.851-3.211,7.781-3.719,8.736c-0.506,0.955-0.92,2.568-0.92,3.584
			s-0.322,2.168-0.715,2.562c-1.363,1.362-4.883,15.773-6.256,25.618c-0.5,3.575-1.205,8.114-1.572,10.086l-0.664,3.586
			l39.268,0.664c21.598,0.365,52.02,0.664,67.604,0.664h28.336v10v10l-32.25-0.01c-28.986-0.009-90.652,1.753-91.643,2.618
			c-0.215,0.188,3.955,4.763,9.27,10.166l9.662,9.822l59.73,1.251c32.852,0.688,101.807,1.488,153.23,1.779l93.5,0.529
			l13.045-12.828c7.174-7.055,14.443-14.537,16.152-16.625l3.107-3.797l-0.285-13.203c-0.156-7.262-0.75-15.003-1.316-17.203
			s-1.568-6.475-2.229-9.5c-5.17-23.701-17.098-48.945-33.313-70.5c-11.42-15.181-23.672-26.614-40.762-38.036
			c-8.609-5.755-15.965-10.464-16.344-10.464s-2.123-1.076-3.873-2.39c-3.273-2.458-17.947-9.61-19.719-9.61
			c-0.545,0-1.773-0.403-2.729-0.898c-2.699-1.397-17.127-5.712-23.236-6.949c-3.025-0.613-7.975-1.614-11-2.226
			C1024.207,93.582,997.408,92.718,988.297,93.371"/>
		<path fill="none" stroke="#093830" stroke-width="2" stroke-miterlimit="10" d="M1001.01,121.481l0.287,9.804l29.936,0.266
			c17.777,0.157,30.316-0.117,30.877-0.678c2.205-2.206-0.523-5.873-9.027-12.128l-8.785-6.46l-21.787-0.304l-21.787-0.305
			L1001.01,121.481"/>
		<path fill="none" stroke="#093830" stroke-width="2" stroke-miterlimit="10" d="M993.729,158.254
			c-2.512,0.707-5.436,1.742-6.5,2.3c-1.061,0.557-4.182,2.061-6.932,3.342c-10.215,4.757-22.254,19.56-25.828,31.76
			c-1.363,4.657-1.381,26.549-0.025,31.146c3.998,13.55,15.494,27.269,27.354,32.646c11.459,5.197,18.209,6.709,27,6.051
			c9.02-0.675,13.398-1.848,21.5-5.757c11.498-5.546,22.428-18.015,27.576-31.456c3.059-7.989,3.07-25.793,0.021-34
			c-4.881-13.142-16.07-25.895-27.598-31.456c-3.85-1.857-8.799-3.812-11-4.343C1012.982,156.962,998.771,156.833,993.729,158.254"
			/>
		<path fill="none" stroke="#093830" stroke-width="2" stroke-miterlimit="10" d="M1083.797,229.761
			c-0.824,0.547-2.521,1.001-3.77,1.01c-3.363,0.021-9.678,4.598-12.9,9.345c-2.568,3.785-2.83,4.97-2.826,12.831
			c0.002,8.181,0.172,8.873,3.092,12.5c1.699,2.111,5.004,5.136,7.346,6.722c3.752,2.539,5.168,2.889,11.908,2.928
			c6.598,0.038,8.227-0.32,11.83-2.602c2.301-1.456,5.658-4.792,7.463-7.415c2.928-4.255,3.285-5.524,3.32-11.782
			c0.045-8.39-1.758-12.738-7.391-17.828C1097.045,231.111,1086.691,227.841,1083.797,229.761"/>
		<path fill="none" stroke="#093830" stroke-width="2" stroke-miterlimit="10" d="M1124.797,272.285v10.5h3.066
			c6.086,0,6.934-1.219,6.934-9.953c0-10.516-0.27-11.047-5.607-11.047h-4.393V272.285"/>
	</g>
	<path fill="none" stroke="#093830" stroke-width="2" stroke-miterlimit="10" d="M1166.44,318.535c0-0.28,0.94-1.47,2.55-3.28
		l8.26-8.27l24.19-24.19c0.01-0.11,0.01-0.23,0.01-0.34l0.17-0.17l-0.13-2.91c0.01-0.62,0.021-1.22,0.021-1.84
		c0-55.64-22.601-105.99-59.15-142.33c-0.25-0.27-0.5-0.52-0.76-0.77c-0.25-0.26-0.5-0.51-0.76-0.76c-0.101-0.11-0.19-0.2-0.29-0.28
		c-0.41-0.42-0.83-0.82-1.25-1.21c-0.051-0.06-0.101-0.1-0.15-0.14c-19.229-18.33-42.1-32.87-67.4-42.44
		c-4.97-1.96-9.63-3.55-13.649-4.61c-2.13-0.64-4.28-1.24-6.44-1.81c-0.45-0.25-0.8-0.52-0.95-0.77
		c-0.39-0.62-0.56-17.22-0.39-36.88l0.32-35.75h-7.13c-4.79,0-7.29,0.41-7.601,1.25c-0.26,0.69-0.58,16.1-0.72,34.25l-0.25,33
		l-5.5-0.21c-3.03-0.11-8.65-0.56-12.5-1l-7-0.79v-34h-1h-13l-0.28,15.93c-0.16,9.67-0.7,16.45-1.37,17.25
		c-0.689,0.83-3.35,1.32-7.159,1.32c-3.341,0-8.801,0.48-12.131,1.07c-17.88,3.17-23.34,4.22-26.06,5.02
		c-38.25,11.17-65.48,26.93-91.54,52.99c-24.03,24.03-38.55,48.05-50.43,83.42c-4.41,13.14-7.58,32.52-8.181,50l-0.409,11.92
		l1.68,1.68v0.021c0-0.007-0.001-0.014-0.001-0.021l-1.681-1.681l-0.003,0.081l1.685,1.704v0.006l15.35,15.52
		c2.971,3.01,5.771,5.9,8.21,8.47c4.512,4.752,7.775,8.403,8.606,9.644l335.075,3.373
		C1166.753,319.256,1166.44,318.738,1166.44,318.535z"/>
	<path fill="none" stroke="#093830" stroke-width="2" stroke-miterlimit="10" d="M1170.314,321.965
		c-0.631-0.762-1.15-1.421-1.549-1.963l-335.074-3.373c0.135,0.203,0.213,0.349,0.213,0.416c0,0.36-0.68,1.35-1.77,2.66
		c-7.23,6.69-14.051,13.82-20.43,21.33c-36.641,43.12-58.76,98.97-58.76,160c0,11.24,0.77,22.29,2.219,33.13
		c0.121,1.12,0.25,2.061,0.391,2.78c0.41,2.8,0.85,5.58,1.35,8.35c0,2.32,0.42,4.48,0.941,4.931
		c2.549,12.619,6.059,24.89,10.449,36.729c0.17,0.521,0.379,1.08,0.619,1.64c17.59,46.44,48.74,86.19,88.641,114.41
		c1.859,1.59,3.471,2.78,3.811,2.78c0.07,0,0.189,0.04,0.33,0.1c39.459,26.721,87.059,42.33,138.309,42.33
		c47.021,0,90.971-13.14,128.391-35.96c1.359-0.689,3.551-2.08,6.541-4.14c27-17.65,50.318-40.44,68.609-66.99
		c0.609-0.87,1.209-1.74,1.779-2.59c0.611-0.91,1.211-1.83,1.811-2.75c0.01-0.02,0.02-0.03,0.029-0.05
		c0.102-0.17,0.211-0.34,0.32-0.51c7.09-10.95,13.32-22.48,18.621-34.521c0.01-0.02,0.01-0.03,0.02-0.05
		c0.08-0.16,0.15-0.32,0.209-0.47c0.041-0.08,0.08-0.16,0.111-0.24c0.039-0.09,0.08-0.17,0.119-0.26
		c0.07-0.16,0.141-0.32,0.211-0.49c0.07-0.15,0.129-0.3,0.199-0.46c0.041-0.08,0.07-0.16,0.1-0.24c0.1-0.24,0.201-0.479,0.301-0.71
		c1.02-2.38,2.01-4.77,2.949-7.19c0.041-0.079,0.08-0.159,0.111-0.239c1.988-4.511,6.289-17.4,7.529-22.57
		c0.08-0.34,0.189-0.77,0.311-1.25c0.039-0.16,0.09-0.33,0.129-0.49c0.061-0.229,0.131-0.47,0.191-0.7
		c0.059-0.21,0.109-0.42,0.17-0.64c0.52-1.89,1.148-4.09,1.699-5.92c1.91-6.31,3.359-14.82,4.35-24.41
		c1.471-10.91,2.24-22.03,2.24-33.34c0-59.27-20.859-113.66-55.619-156.25C1184.875,336.745,1177.824,329.115,1170.314,321.965z"/>
	<g>
		<path fill="#3A6059" d="M1000.001,463.546c37.973,0,68.865,30.894,68.865,68.866s-30.893,68.866-68.865,68.866
			c-37.974,0-68.867-30.894-68.867-68.866S962.027,463.546,1000.001,463.546 M1000.001,461.546
			c-39.139,0-70.867,31.728-70.867,70.866s31.729,70.866,70.867,70.866s70.865-31.728,70.865-70.866
			S1039.14,461.546,1000.001,461.546L1000.001,461.546z"/>
		<path fill="#3A6059" d="M1000.001,461.546c39.139,0,70.865,31.728,70.865,70.866s-31.727,70.866-70.865,70.866
			s-70.867-31.728-70.867-70.866S960.862,461.546,1000.001,461.546 M1000.001,379.546c-20.601,0-40.629,4.053-59.527,12.047
			c-18.213,7.703-34.553,18.714-48.565,32.726c-14.013,14.013-25.023,30.353-32.728,48.565
			c-7.994,18.899-12.047,38.928-12.047,59.528s4.053,40.629,12.047,59.528c7.704,18.213,18.715,34.553,32.728,48.565
			c14.013,14.012,30.353,25.022,48.565,32.726c18.898,7.994,38.927,12.047,59.527,12.047s40.629-4.053,59.527-12.047
			c18.214-7.703,34.553-18.714,48.565-32.727s25.023-30.353,32.727-48.565c7.993-18.899,12.046-38.927,12.046-59.527
			s-4.053-40.628-12.046-59.527c-7.703-18.213-18.714-34.553-32.727-48.565s-30.352-25.023-48.565-32.727
			C1040.63,383.599,1020.602,379.546,1000.001,379.546L1000.001,379.546z"/>
		<g>
			<image overflow="visible" width="321" height="320" xlink:href="AC3258C.png"  transform="matrix(1 0 0 1 839.9961 372.9961)">
			</image>
			<path fill="#ECE9E2" d="M1000.001,461.546c39.139,0,70.865,31.728,70.865,70.866s-31.727,70.866-70.865,70.866
				s-70.867-31.728-70.867-70.866S960.862,461.546,1000.001,461.546 M1000.001,381.546c-20.332,0-40.098,4-58.748,11.889
				c-17.975,7.603-34.101,18.469-47.931,32.298c-13.83,13.83-24.697,29.956-32.3,47.931c-7.889,18.651-11.889,38.417-11.889,58.749
				s4,40.098,11.889,58.749c7.603,17.975,18.47,34.101,32.3,47.931c13.83,13.829,29.956,24.695,47.931,32.298
				c18.65,7.889,38.416,11.889,58.748,11.889s40.098-4,58.748-11.889c17.976-7.603,34.102-18.47,47.931-32.299
				c13.829-13.83,24.696-29.956,32.299-47.931c7.888-18.651,11.888-38.417,11.888-58.748s-4-40.097-11.888-58.748
				c-7.603-17.975-18.47-34.101-32.299-47.931c-13.829-13.829-29.955-24.696-47.931-32.299
				C1040.099,385.546,1020.333,381.546,1000.001,381.546L1000.001,381.546z"/>
		</g>
	</g>
</g>
</svg>
